<svg id="Capa_1" enable-background="new 0 0 512 512" height="512" viewBox="0 0 512 512" width="512" xmlns="http://www.w3.org/2000/svg"><g><g><g><path d="m46.766 253.597h-30v-141.316h68.975v30h-38.975z" fill="#eaf2fe"/></g><g><path d="m261.022 253.597h-30v-111.316h-38.975v-30h68.975z" fill="#d6e7fe"/></g><path d="m18.751 292.412 14.122 205.479h106.021l18.362-205.479z" fill="#8bc605"/><g><path d="m138.894 292.412v205.479h106.022l14.122-205.479z" fill="#80b405"/></g><g><path d="m0 237.417h157.256v68.223h-157.256z" fill="#ace233"/></g><g><path d="m138.894 237.417h138.894v68.223h-138.894z" fill="#8bc605"/></g><g><path d="m74.816 90.892h75.231v72.779h-75.231z" fill="#0052be"/></g><g><path d="m138.894 90.892h64.079v72.779h-64.079z" fill="#00429b"/></g></g><g><g><g><g><path d="m378.369 14.109h19.045v360.969h-19.045z" fill="#ff5c5c"/></g><g><path d="m393.369 14.109h15v360.969h-15z" fill="#ff2929"/></g><g><path d="m393.369 383.455h-100.474l-11.205 114.436h126.679z" fill="#f5d844"/></g><g><path d="m493.843 383.455h-100.474v114.436h111.68z" fill="#ecbd2c"/></g><g><path d="m274.738 360.078h127.728v30h-127.728z" fill="#d00000"/></g><g><path d="m393.369 360.078h118.631v30h-118.631z" fill="#af0000"/></g><g><g><path d="m330.029 442.995h30v54.896h-30z" fill="#ecbd2c"/></g></g><g><g><path d="m426.709 442.995h30v54.896h-30z" fill="#e68f21"/></g></g></g></g></g></g></svg>