<?xml version="1.0" encoding="iso-8859-1"?>
<!-- Generator: Adobe Illustrator 19.0.0, SVG Export Plug-In . SVG Version: 6.00 Build 0)  -->
<svg version="1.1" id="Capa_1" xmlns="http://www.w3.org/2000/svg" xmlns:xlink="http://www.w3.org/1999/xlink" x="0px" y="0px"
	 viewBox="0 0 512 512" style="enable-background:new 0 0 512 512;" xml:space="preserve">
<circle style="fill:#005C83;" cx="256" cy="256" r="256"/>
<path style="fill:#00263F;" d="M506.88,307.171L264.213,64.504l-4.118,224.535l-111.76-111.76L143.188,213l-29.35-1.22
	l135.235,135.235l-93.406,23.818l-25.691,63.487l71.935,71.935C219.349,510.007,237.44,512,256,512
	C379.86,512,483.171,424.035,506.88,307.171z"/>
<g>
	<path style="fill:#FFFFFF;" d="M148.336,246.279c-1.955-21.045-13.455-32.545-34.499-34.499
		c21.044-1.956,32.543-13.456,34.497-34.501c1.955,21.045,13.455,32.545,34.499,34.499
		C161.79,213.734,150.291,225.234,148.336,246.279z"/>
	<path style="fill:#FFFFFF;" d="M256,359.701L256,359.701c-6.213,0-11.25-5.037-11.25-11.25V72.175c0-6.213,5.037-11.25,11.25-11.25
		l0,0c6.213,0,11.25,5.037,11.25,11.25v276.277C267.25,354.664,262.213,359.701,256,359.701z"/>
</g>
<g>
	<path style="fill:#E0E0E0;" d="M256,60.925c-0.113,0-0.222,0.014-0.333,0.017v298.742c0.112,0.003,0.221,0.017,0.333,0.017
		c6.213,0,11.25-5.037,11.25-11.25V72.175C267.25,65.961,262.213,60.925,256,60.925z"/>
	<path style="fill:#E0E0E0;" d="M371.792,302.859c-1.615-17.386-11.116-26.886-28.501-28.501
		c17.385-1.616,26.885-11.116,28.499-28.502c1.615,17.386,11.116,26.886,28.501,28.501
		C382.907,275.972,373.407,285.473,371.792,302.859z"/>
</g>
<rect x="140.67" y="338" style="fill:#FF6838;" width="230.66" height="21.701"/>
<rect x="255.67" y="338" style="fill:#AE4E32;" width="115.67" height="21.701"/>
<polygon style="fill:#FFDC00;" points="173.285,384.5 173.002,434.321 316.998,434.321 325.762,381.359 334.525,434.321 
	345.039,434.321 353.802,381.359 362.566,434.321 382.025,434.321 371.332,354.667 140.668,354.667 129.975,434.321 157.53,434.321 
	"/>
<polygon style="fill:#FFC000;" points="371.332,354.667 255.667,354.667 255.667,434.321 316.998,434.321 325.762,381.359 
	334.525,434.321 345.039,434.321 353.802,381.359 362.566,434.321 382.025,434.321 "/>
<g>
</g>
<g>
</g>
<g>
</g>
<g>
</g>
<g>
</g>
<g>
</g>
<g>
</g>
<g>
</g>
<g>
</g>
<g>
</g>
<g>
</g>
<g>
</g>
<g>
</g>
<g>
</g>
<g>
</g>
</svg>
