<svg height="511pt" viewBox="-63 0 511 511.89338" width="511pt" xmlns="http://www.w3.org/2000/svg"><path d="m346.046875 293.171875-153.601563 202.722656-153.597656-202.722656c-50.6875-76.847656-36.777344-179.328125 32.554688-239.886719 69.335937-60.558594 172.753906-60.558594 242.085937 0 69.335938 60.558594 83.242188 163.039063 32.558594 239.886719zm0 0" fill="#ff8a65"/><path d="m328.445312 191.894531c0 75.109375-60.886718 136-136 136-75.109374 0-136-60.890625-136-136 0-75.113281 60.890626-136 136-136 75.113282 0 136 60.886719 136 136zm0 0" fill="#a6e7ff"/><path d="m268.328125 220.863281-51.882813-12.96875h-48l-51.878906 12.96875c-7.125 1.777344-12.121094 8.183594-12.121094 15.527344v59.09375c50.710938 43.210937 125.292969 43.210937 176 0v-59.09375c.003907-7.34375-4.992187-13.75-12.117187-15.527344zm0 0" fill="#e2fc85"/><path d="m216.445312 207.894531s0 16-24 16-24-16-24-16v-40h48zm0 0" fill="#ffcdbe"/><path d="m224.445312 119.894531v47.742188l-21.335937 16.257812h-21.328125l-21.335938-16.257812v-47.742188zm0 0" fill="#ffdecf"/><path d="m144.445312 119.894531c4.703126-18.808593 21.601563-32 40.984376-32h23.015624c8.839844 0 16 7.164063 16 16v16zm0 0" fill="#50575e"/><path d="m184.445312 351.894531h16v16h-16zm0 0" fill="#fff"/><path d="m184.445312 383.894531h16v64h-16zm0 0" fill="#fff"/><path d="m192.445312 47.894531c-79.527343 0-144 64.46875-144 144 0 79.527344 64.472657 144 144 144 79.53125 0 144-64.472656 144-144-.089843-79.492187-64.507812-143.910156-144-144zm80 240v3.757813c-5.050781 4.039062-10.398437 7.6875-16 10.921875v-46.679688h-16v54.574219c-30.765624 12.566406-65.230468 12.566406-96 0v-54.574219h-16v46.679688c-5.597656-3.234375-10.945312-6.882813-16-10.921875v-55.261719c-.003906-3.671875 2.496094-6.875 6.058594-7.769531l44.453125-11.128906c4.488281 7.816406 12.511719 12.949218 21.488281 13.738281v32.664062h16v-32.664062c8.980469-.789063 17.003907-5.921875 21.488282-13.738281l44.449218 11.113281c3.566407.890625 6.066407 4.09375 6.0625 7.769531zm-72.039062-112h-15.917969l-16-12.21875v-35.78125h32v-16h-44.042969c6.265626-9.972656 17.21875-16.015625 28.992188-16h23.007812c4.417969 0 8 3.582031 8 8v59.78125zm8.039062 13.992188v17.832031c-.109374 1.453125-1.398437 8.175781-16 8.175781-14.726562 0-15.910156-6.855469-16-8v-18.007812l2.632813 2.007812h26.738281zm80 86.398437v-39.894531c.003907-11.015625-7.488281-20.617187-18.175781-23.289063l-45.824219-11.449218v-23.957032l8-6.097656v-67.703125c0-13.257812-10.742187-24-24-24h-23.015624c-23.066407-.027343-43.179688 15.675781-48.742188 38.0625l-2.488281 9.9375h18.246093v43.703125l8 6.097656v23.957032l-45.832031 11.449218c-10.679687 2.675782-18.171875 12.277344-18.167969 23.289063v39.878906c-45.382812-51.460937-42.117187-129.550781 7.402344-177.042969 49.519532-47.496093 127.679688-47.496093 177.199219 0 49.519531 47.492188 52.78125 125.582032 7.398437 177.042969zm0 0"/><path d="m328.183594 56.15625c-75.003906-74.875-196.472656-74.875-271.472656 0-64.363282 64.6875-74.492188 165.664062-24.265626 241.847656l160 211.136719 160-211.136719.304688-.421875c49.960938-76.152343 39.710938-176.898437-24.566406-241.425781zm11.335937 232.394531-147.074219 194.09375-146.917968-193.878906c-35.648438-54.035156-38.734375-123.285156-8.035156-180.28125 30.695312-56.992187 90.21875-92.519531 154.953124-92.488281 46.691407-.160156 91.5 18.378906 124.425782 51.480468 58.84375 59.078126 68.289062 151.289063 22.648437 221.074219zm0 0"/><path d="m240.445312 495.894531h112v16h-112zm0 0"/><path d="m368.445312 495.894531h16v16h-16zm0 0"/><path d="m32.445312 495.894531h112v16h-112zm0 0"/><path d="m.445312 495.894531h16v16h-16zm0 0"/></svg>